<?xml version="1.0" encoding="utf-8"?>
<!-- Generator: Adobe Illustrator 19.0.0, SVG Export Plug-In . SVG Version: 6.00 Build 0)  -->
<svg version="1.1" id="Layer_1" xmlns="http://www.w3.org/2000/svg" xmlns:xlink="http://www.w3.org/1999/xlink" x="0px" y="0px"
	 viewBox="0 0 80 80" enable-background="new 0 0 80 80" xml:space="preserve">
<g id="XMLID_1_">
	<linearGradient id="XMLID_3_" gradientUnits="userSpaceOnUse" x1="40" y1="80" x2="40" y2="0">
		<stop  offset="0" style="stop-color:#B32D50"/>
		<stop  offset="1" style="stop-color:#B32D7D"/>
	</linearGradient>
	<circle id="XMLID_7_" fill="url(#XMLID_3_)" cx="40" cy="40" r="40"/>
	<g id="XMLID_33_">
		<g id="XMLID_56_">
			<path id="XMLID_31_" fill="#FFFFFF" d="M41.3,22.1c1.1,0,2.1,0.1,3.1,0.3l-3.1-6.8l-3.1,6.8C39.1,22.2,40.2,22.1,41.3,22.1z"/>
			<path id="XMLID_30_" fill="#FFFFFF" d="M34.2,23.6l-10.3-2.1L26,31.8C27.7,28.2,30.6,25.3,34.2,23.6z"/>
			<path id="XMLID_29_" fill="#FFFFFF" d="M65.2,38.9l-7.4-3.2c0.2,1,0.3,2.1,0.3,3.2s-0.1,2.2-0.3,3.2L65.2,38.9z"/>
			<path id="XMLID_28_" fill="#FFFFFF" d="M56.5,31.8l2.1-10.3l-10.3,2.1C52,25.3,54.9,28.2,56.5,31.8z"/>
			<path id="XMLID_27_" fill="#FFFFFF" d="M26,46l-2.1,10.3l10.3-2.1C30.6,52.5,27.7,49.6,26,46z"/>
			<path id="XMLID_26_" fill="#FFFFFF" d="M48.4,54.2l10.3,2.1L56.5,46C54.9,49.6,52,52.5,48.4,54.2z"/>
			<path id="XMLID_25_" fill="#FFFFFF" d="M41.3,55.8c-1.2,0-2.3-0.1-3.4-0.3l3.4,9l3.4-9C43.6,55.7,42.4,55.8,41.3,55.8z"/>
			<path id="XMLID_24_" fill="#FFFFFF" d="M24.4,38.9c0-1.1,0.1-2.2,0.3-3.2l-9.9,3.2l9.9,3.2C24.5,41.1,24.4,40,24.4,38.9z"/>
		</g>
		<path id="XMLID_53_" fill="#FFFFFF" d="M40.8,59.5C30,59.5,21.3,50.7,21.3,40S30,20.5,40.8,20.5S60.2,29.3,60.2,40
			S51.5,59.5,40.8,59.5z M40.8,25.7c-7.9,0-14.3,6.4-14.3,14.3s6.4,14.3,14.3,14.3S55,47.9,55,40S48.6,25.7,40.8,25.7z"/>
		<g id="XMLID_34_">
			<g id="XMLID_91_">
				<defs>
					<circle id="SVGID_9_" cx="40.8" cy="39.7" r="12.1"/>
				</defs>
				<clipPath id="SVGID_1_">
					<use xlink:href="#SVGID_9_"  overflow="visible"/>
				</clipPath>
			</g>
			<g id="XMLID_83_">
				<defs>
					<circle id="SVGID_8_" cx="40.8" cy="39.7" r="12.1"/>
				</defs>
				<clipPath id="SVGID_2_">
					<use xlink:href="#SVGID_8_"  overflow="visible"/>
				</clipPath>
				<g id="XMLID_84_" clip-path="url(#SVGID_2_)">
					<path id="XMLID_90_" fill="#FFFFFF" d="M43.7,55.5c-0.7,0-1.3,0-1.9,0c-0.1,0-0.2-0.1-0.2-0.2c-0.2-1.5-0.5-2.9-0.7-4.4
						c0-0.2-0.1-0.4-0.2-0.7c-0.3,1.7-0.5,3.5-0.8,5.3c-0.7,0-1.5,0-2.2,0c0-0.1,0-0.2,0-0.3c0-2.7,0-5.3,0-8c0-0.2-0.1-0.3-0.2-0.5
						c-0.8-0.5-1.3-1.3-1.3-2.3c0-1.5,0-2.9,0-4.4c0-1.7,1.2-2.8,2.9-2.9c1.1,0,2.2,0,3.3,0c1.7,0,2.9,1.2,2.9,2.9
						c0,1.5,0,2.9,0,4.4c0,1-0.4,1.8-1.3,2.3c-0.2,0.1-0.3,0.3-0.3,0.5c0,2.6,0,5.2,0,7.8C43.7,55.2,43.7,55.3,43.7,55.5z"/>
					<path id="XMLID_89_" fill="#FFFFFF" d="M33.4,49.6c-0.1,0.3-0.1,0.7-0.2,1c-0.2,1.2-0.4,2.4-0.5,3.6c0,0.2-0.1,0.3-0.3,0.3
						c-0.5,0-1,0-1.4,0c-0.3,0-0.3-0.1-0.3-0.3c0-2.4,0-4.7,0-7.1c0-0.3-0.1-0.5-0.3-0.7c-0.7-0.5-1.1-1.1-1.1-2c0-1.4,0-2.8,0-4.3
						c0-1.2,1.1-2.3,2.3-2.3c1.2,0,2.5,0,3.7,0c0.1,0,0.1,0,0.2,0c-0.2,0.4-0.3,0.9-0.5,1.3c-0.1,0.3-0.1,0.5-0.1,0.8
						c0,1.5,0,3,0,4.5c0,1.1,0.4,2,1.1,2.8c0.1,0.1,0.2,0.3,0.2,0.4c0,2.2,0,4.4,0,6.5c0,0.2-0.1,0.3-0.3,0.3c-0.4,0-0.9,0-1.3,0
						c-0.2,0-0.2,0-0.2-0.2c-0.2-1.4-0.4-2.8-0.6-4.3C33.6,49.8,33.5,49.7,33.4,49.6C33.5,49.6,33.4,49.6,33.4,49.6z"/>
					<path id="XMLID_88_" fill="#FFFFFF" d="M48,49.6c-0.1,0.7-0.2,1.4-0.3,2.1c-0.1,0.8-0.3,1.7-0.4,2.5c0,0.2-0.1,0.3-0.3,0.3
						c-0.4,0-0.9,0-1.3,0c-0.2,0-0.3-0.1-0.3-0.3c0-2.2,0-4.4,0-6.6c0-0.1,0.1-0.3,0.1-0.4c0.7-0.8,1.1-1.7,1.1-2.8
						c0-1.5,0-2.9,0-4.4c0-0.7-0.1-1.4-0.5-2c0-0.1-0.1-0.1-0.1-0.2c0,0,0,0,0-0.1c0.2,0,0.3-0.1,0.5-0.1c1.1,0,2.3,0,3.4,0
						c1.1,0,2.1,1,2.2,2.1c0.1,1,0.1,2.1,0.1,3.1c0,0.6,0,1.1-0.1,1.7c-0.1,0.8-0.5,1.3-1.1,1.8c-0.2,0.1-0.3,0.3-0.3,0.6
						c0,2.4,0,4.8,0,7.1c0,0.4,0,0.4-0.4,0.4c-0.4,0-0.9,0-1.3,0c-0.2,0-0.3-0.1-0.3-0.3c-0.1-0.8-0.2-1.6-0.4-2.4
						c-0.1-0.7-0.2-1.4-0.3-2.1C48.1,49.6,48.1,49.6,48,49.6C48,49.6,48,49.6,48,49.6z"/>
					<path id="XMLID_87_" fill="#FFFFFF" d="M43.8,33.7c0,1.6-1.3,2.9-2.9,2.9c-1.6,0-2.9-1.3-2.9-2.9c0-1.6,1.3-2.9,2.9-2.9
						C42.4,30.8,43.8,32.1,43.8,33.7z"/>
					<path id="XMLID_86_" fill="#FFFFFF" d="M33.5,37.1c-1.5,0-2.7-1.2-2.7-2.7c0-1.4,1.1-2.7,2.7-2.7c1.7,0,2.7,1.4,2.7,2.7
						C36.1,36,35,37.1,33.5,37.1z"/>
					<path id="XMLID_85_" fill="#FFFFFF" d="M48.1,37.1c-1.5,0-2.7-1.2-2.7-2.7c0-1.4,1.2-2.6,2.7-2.6c1.7,0,2.7,1.4,2.7,2.8
						C50.7,35.9,49.5,37.1,48.1,37.1z"/>
				</g>
			</g>
			<g id="XMLID_75_">
				<defs>
					<circle id="SVGID_7_" cx="40.8" cy="39.7" r="12.1"/>
				</defs>
				<clipPath id="SVGID_3_">
					<use xlink:href="#SVGID_7_"  overflow="visible"/>
				</clipPath>
			</g>
		</g>
	</g>
</g>
</svg>
