<?xml version="1.0" encoding="utf-8"?>
<!-- Generator: Adobe Illustrator 19.0.0, SVG Export Plug-In . SVG Version: 6.00 Build 0)  -->
<svg version="1.1" id="Layer_1" xmlns="http://www.w3.org/2000/svg" xmlns:xlink="http://www.w3.org/1999/xlink" x="0px" y="0px"
	 viewBox="0 0 80 80" enable-background="new 0 0 80 80" xml:space="preserve">
<g id="XMLID_1_">
	<circle id="XMLID_11_" fill="#DC4E41" cx="40" cy="40" r="40"/>
	<g id="XMLID_6_">
		<path id="XMLID_8_" fill="#FFFFFF" d="M30.4,56.9c-9.3,0-16.9-7.5-16.9-16.9S21,23.1,30.4,23.1c4.6,0,8.4,1.7,11.3,4.4l-4.6,4.4
			c-1.2-1.2-3.4-2.6-6.7-2.6c-5.8,0-10.4,4.8-10.4,10.7c0,5.9,4.7,10.7,10.4,10.7c6.7,0,9.2-4.8,9.6-7.3h-9.6v-5.8h15.9
			c0.2,0.9,0.3,1.7,0.3,2.8C46.6,50,40.1,56.9,30.4,56.9z M66.5,42.4h-4.8v4.8h-4.8v-4.8h-4.8v-4.8h4.8v-4.8h4.8v4.8h4.8V42.4z"/>
	</g>
</g>
</svg>
