<?xml version="1.0" encoding="utf-8"?>
<!-- Generator: Adobe Illustrator 19.0.0, SVG Export Plug-In . SVG Version: 6.00 Build 0)  -->
<svg version="1.1" id="Layer_1" xmlns="http://www.w3.org/2000/svg" xmlns:xlink="http://www.w3.org/1999/xlink" x="0px" y="0px"
	 viewBox="0 0 80 80" enable-background="new 0 0 80 80" xml:space="preserve">
<g id="XMLID_6_">
	<circle id="XMLID_1_" fill="#E42D27" cx="40" cy="40" r="40"/>
	<g id="XMLID_2_">
		<path id="XMLID_3_" fill="#FFFFFF" d="M54.7,26.2c0.8,0.1,2.6,0.1,4.2,1.8c0,0,1.3,1.3,1.7,4.2C61,35.6,61,39,61,39v3.2
			c0,0,0,3.4-0.4,6.8c-0.4,2.9-1.7,4.2-1.7,4.2c-1.6,1.7-3.4,1.7-4.2,1.8c0,0-5.9,0.4-14.7,0.4c-10.9-0.1-14.3-0.4-14.3-0.4
			c-0.9-0.2-3-0.1-4.6-1.8c0,0-1.3-1.3-1.7-4.2C19,45.6,19,42.2,19,42.2V39c0,0,0-3.4,0.4-6.8c0.4-2.9,1.7-4.2,1.7-4.2
			c1.6-1.7,3.4-1.7,4.2-1.8c0,0,5.9-0.4,14.7-0.4S54.7,26.2,54.7,26.2z M47,40.2l-11.3-5.9V46L47,40.2z"/>
	</g>
</g>
</svg>
