<?xml version="1.0" encoding="utf-8"?>
<!-- Generator: Adobe Illustrator 16.0.0, SVG Export Plug-In . SVG Version: 6.00 Build 0)  -->
<!DOCTYPE svg PUBLIC "-//W3C//DTD SVG 1.1//EN" "http://www.w3.org/Graphics/SVG/1.1/DTD/svg11.dtd">
<svg version="1.1" id="Layer_1" xmlns="http://www.w3.org/2000/svg" xmlns:xlink="http://www.w3.org/1999/xlink" x="0px" y="0px"
	 width="18px" height="13px" viewBox="0 0 18 13" enable-background="new 0 0 18 13" xml:space="preserve">
<path d="M16.633,5.136H4.686l2.842-2.801c0.264-0.26,0.41-0.604,0.41-0.968c0-0.364-0.146-0.707-0.408-0.966
	c-0.525-0.52-1.427-0.516-1.939,0L0.402,5.529C0.143,5.793,0,6.14,0,6.505c0,0.367,0.148,0.724,0.407,0.981l5.189,5.13
	C5.855,12.863,6.197,13,6.559,13c0.36,0,0.702-0.136,0.97-0.39c0.264-0.261,0.41-0.604,0.409-0.968c0-0.363-0.146-0.707-0.408-0.966
	L4.685,7.859h11.948C17.399,7.859,18,7.264,18,6.505C18,5.75,17.387,5.136,16.633,5.136z"/>
</svg>
