<?xml version="1.0" encoding="utf-8"?>
<!-- Generator: Adobe Illustrator 16.0.0, SVG Export Plug-In . SVG Version: 6.00 Build 0)  -->
<!DOCTYPE svg PUBLIC "-//W3C//DTD SVG 1.1//EN" "http://www.w3.org/Graphics/SVG/1.1/DTD/svg11.dtd">
<svg version="1.1" id="Layer_1" xmlns="http://www.w3.org/2000/svg" xmlns:xlink="http://www.w3.org/1999/xlink" x="0px" y="0px"
	 width="97px" height="31.833px" viewBox="0 0 97 31.833" enable-background="new 0 0 97 31.833" xml:space="preserve">
<g>
	<g>
		<path fill="none" d="M68.014,14.764c-0.088-0.186-0.209-0.332-0.363-0.44c-0.154-0.106-0.357-0.161-0.604-0.161
			c-0.281,0-0.514,0.054-0.693,0.158c-0.182,0.105-0.322,0.257-0.42,0.454v3.026c0.098,0.197,0.238,0.348,0.42,0.451
			c0.18,0.102,0.416,0.154,0.707,0.154c0.257,0,0.464-0.051,0.618-0.152c0.156-0.1,0.273-0.24,0.355-0.421s0.137-0.398,0.162-0.652
			c0.027-0.252,0.039-0.531,0.039-0.837v-0.147c0-0.277-0.016-0.538-0.045-0.784C68.158,15.165,68.1,14.949,68.014,14.764z"/>
		<path fill="none" d="M59.113,14.162c-0.201,0-0.374,0.036-0.519,0.106c-0.146,0.069-0.268,0.165-0.363,0.287
			s-0.172,0.268-0.229,0.437c-0.057,0.17-0.1,0.353-0.127,0.55h2.393v-0.183c0.01-0.381-0.087-0.676-0.288-0.885
			C59.779,14.268,59.49,14.162,59.113,14.162z"/>
		<path fill="none" d="M43.211,16.795c-0.152,0.061-0.274,0.143-0.366,0.246c-0.091,0.103-0.157,0.221-0.196,0.354
			c-0.04,0.134-0.061,0.274-0.061,0.42c0,0.216,0.073,0.39,0.219,0.524c0.146,0.132,0.331,0.198,0.557,0.198
			c0.295,0,0.54-0.063,0.734-0.188c0.195-0.127,0.335-0.27,0.419-0.43v-1.217h-0.745C43.551,16.703,43.364,16.733,43.211,16.795z"/>
		<path fill="none" d="M76.064,14.771c-0.102-0.186-0.236-0.333-0.404-0.443c-0.17-0.109-0.38-0.165-0.634-0.165
			c-0.248,0-0.457,0.056-0.623,0.165c-0.166,0.11-0.299,0.258-0.398,0.443c-0.097,0.186-0.167,0.403-0.21,0.651
			c-0.041,0.249-0.063,0.512-0.063,0.788v0.148c0,0.286,0.02,0.554,0.059,0.802c0.041,0.249,0.111,0.465,0.213,0.647
			c0.099,0.183,0.233,0.327,0.403,0.433c0.168,0.105,0.381,0.158,0.633,0.158c0.25,0,0.456-0.053,0.624-0.158
			c0.166-0.105,0.299-0.25,0.396-0.433c0.1-0.183,0.17-0.398,0.213-0.647c0.041-0.248,0.063-0.516,0.063-0.802V16.21
			c0-0.276-0.02-0.539-0.061-0.788C76.236,15.174,76.166,14.956,76.064,14.771z"/>
		<path fill="none" d="M84.158,14.771c-0.102-0.186-0.236-0.333-0.404-0.443c-0.169-0.109-0.38-0.165-0.634-0.165
			c-0.248,0-0.457,0.056-0.623,0.165c-0.166,0.11-0.298,0.258-0.397,0.443c-0.098,0.186-0.168,0.403-0.211,0.651
			c-0.041,0.249-0.063,0.512-0.063,0.788v0.148c0,0.286,0.02,0.554,0.059,0.802c0.041,0.249,0.111,0.465,0.213,0.647
			c0.1,0.183,0.233,0.327,0.403,0.433c0.168,0.105,0.381,0.158,0.633,0.158c0.25,0,0.457-0.053,0.624-0.158
			c0.166-0.105,0.299-0.25,0.396-0.433c0.1-0.183,0.17-0.398,0.213-0.647c0.041-0.248,0.063-0.516,0.063-0.802V16.21
			c0-0.276-0.02-0.539-0.061-0.788C84.33,15.174,84.26,14.956,84.158,14.771z"/>
		<path fill="#235A9D" d="M38.517,11.188c0.186-0.152,0.452-0.229,0.8-0.229c0.127,0,0.236,0.005,0.327,0.014
			c0.091,0.01,0.177,0.026,0.257,0.05l-0.008-1.746c-0.174-0.042-0.351-0.077-0.534-0.105c-0.183-0.028-0.376-0.042-0.577-0.042
			c-0.451,0-0.854,0.059-1.214,0.176s-0.665,0.291-0.918,0.521c-0.254,0.229-0.449,0.515-0.585,0.854
			c-0.137,0.341-0.204,0.731-0.204,1.172v0.62h-1.104v1.646h1.104v5.968h2.379V14.12h1.484v-1.646h-1.484v-0.62
			C38.239,11.563,38.331,11.342,38.517,11.188z"/>
		<path fill="#235A9D" d="M46.98,19.296c-0.028-0.139-0.05-0.299-0.063-0.482c-0.015-0.184-0.021-0.397-0.021-0.647v-3.117
			c0-0.45-0.08-0.845-0.239-1.186s-0.38-0.624-0.661-0.853c-0.282-0.227-0.616-0.396-1.003-0.51
			c-0.388-0.112-0.809-0.169-1.263-0.169c-0.508,0-0.967,0.063-1.376,0.19c-0.411,0.127-0.763,0.301-1.054,0.521
			c-0.29,0.221-0.514,0.483-0.671,0.789c-0.157,0.305-0.236,0.633-0.236,0.984h2.372c0-0.281,0.072-0.49,0.218-0.626
			s0.354-0.204,0.627-0.204c0.323,0,0.556,0.094,0.696,0.282c0.141,0.187,0.211,0.442,0.211,0.767v0.401h-0.731
			c-0.615,0-1.146,0.058-1.594,0.173c-0.448,0.113-0.819,0.278-1.113,0.491c-0.292,0.214-0.511,0.476-0.653,0.786
			c-0.144,0.309-0.215,0.66-0.215,1.055c0,0.338,0.068,0.647,0.207,0.929s0.325,0.521,0.561,0.723
			c0.233,0.199,0.507,0.354,0.819,0.466c0.313,0.113,0.644,0.17,0.995,0.17c0.456,0,0.829-0.08,1.119-0.24
			c0.291-0.158,0.528-0.353,0.711-0.583c0.028,0.131,0.061,0.254,0.096,0.369c0.035,0.114,0.078,0.22,0.13,0.313h2.372v-0.121
			c-0.052-0.094-0.098-0.192-0.138-0.302C47.042,19.558,47.008,19.435,46.98,19.296z M44.517,17.92
			c-0.084,0.16-0.224,0.303-0.419,0.43c-0.194,0.126-0.439,0.188-0.734,0.188c-0.226,0-0.411-0.066-0.557-0.198
			c-0.146-0.135-0.219-0.309-0.219-0.524c0-0.146,0.021-0.286,0.061-0.42c0.039-0.134,0.105-0.252,0.196-0.354
			c0.092-0.104,0.214-0.186,0.366-0.246c0.153-0.062,0.34-0.092,0.561-0.092h0.745V17.92z"/>
		<path fill="#235A9D" d="M50.319,15.422c0.027-0.248,0.08-0.466,0.16-0.651c0.078-0.186,0.192-0.333,0.339-0.443
			c0.148-0.109,0.344-0.165,0.59-0.165c0.182,0,0.342,0.032,0.475,0.096c0.135,0.063,0.245,0.149,0.333,0.26
			c0.09,0.11,0.154,0.24,0.195,0.391c0.039,0.15,0.059,0.31,0.059,0.479h2.226c0-0.483-0.08-0.915-0.236-1.295
			c-0.158-0.38-0.379-0.7-0.662-0.961c-0.285-0.26-0.624-0.458-1.021-0.595c-0.396-0.136-0.833-0.204-1.313-0.204
			c-0.59,0-1.108,0.099-1.551,0.296c-0.444,0.197-0.813,0.468-1.108,0.813c-0.296,0.346-0.519,0.755-0.669,1.229
			s-0.226,0.985-0.226,1.534v0.162c0,0.549,0.075,1.059,0.226,1.529c0.15,0.473,0.374,0.88,0.673,1.226
			c0.298,0.346,0.669,0.615,1.115,0.812c0.445,0.197,0.966,0.297,1.563,0.297c0.455,0,0.878-0.068,1.272-0.205
			c0.395-0.135,0.733-0.329,1.021-0.579c0.287-0.252,0.51-0.553,0.672-0.902c0.162-0.349,0.244-0.738,0.244-1.171H52.47
			c0.006,0.324-0.084,0.576-0.268,0.756c-0.183,0.182-0.44,0.271-0.774,0.271c-0.248,0-0.449-0.053-0.602-0.158
			s-0.269-0.25-0.347-0.436c-0.08-0.186-0.133-0.401-0.16-0.648c-0.023-0.245-0.039-0.51-0.039-0.791v-0.162
			C50.28,15.931,50.296,15.671,50.319,15.422z"/>
		<path fill="#235A9D" d="M61.672,13.339c-0.296-0.324-0.661-0.572-1.091-0.746c-0.429-0.174-0.913-0.261-1.452-0.261
			c-0.61,0-1.144,0.102-1.603,0.303c-0.456,0.202-0.839,0.479-1.146,0.83c-0.308,0.353-0.538,0.77-0.69,1.25
			c-0.152,0.481-0.229,0.998-0.229,1.552v0.268c0,0.502,0.088,0.976,0.264,1.421c0.176,0.447,0.431,0.837,0.763,1.175
			c0.334,0.338,0.744,0.605,1.231,0.802c0.488,0.197,1.043,0.297,1.663,0.297c0.365,0,0.705-0.039,1.019-0.117
			c0.314-0.076,0.6-0.178,0.854-0.303c0.254-0.122,0.474-0.265,0.663-0.425c0.191-0.16,0.348-0.324,0.469-0.492l-1.083-1.281
			c-0.225,0.282-0.494,0.483-0.807,0.606c-0.312,0.121-0.63,0.182-0.954,0.182c-0.455,0-0.825-0.121-1.11-0.365
			c-0.287-0.244-0.473-0.58-0.557-1.006h4.716v-0.965c0-0.572-0.078-1.089-0.236-1.549C62.197,14.055,61.971,13.662,61.672,13.339z
			 M60.269,15.542h-2.393c0.027-0.197,0.07-0.38,0.127-0.55c0.057-0.169,0.133-0.314,0.229-0.437s0.217-0.218,0.363-0.287
			c0.145-0.07,0.317-0.106,0.519-0.106c0.377,0,0.666,0.105,0.867,0.313c0.201,0.209,0.298,0.504,0.288,0.885V15.542z"/>
		<path fill="#235A9D" d="M69.895,13.427c-0.243-0.346-0.552-0.613-0.925-0.806s-0.815-0.289-1.327-0.289
			c-0.365,0-0.688,0.066-0.97,0.197c-0.283,0.132-0.529,0.317-0.74,0.556V9.277h-2.371v10.811h2.126l0.097-0.782
			c0.227,0.293,0.49,0.519,0.793,0.679c0.303,0.162,0.661,0.244,1.079,0.244c0.508,0,0.946-0.096,1.317-0.285
			c0.371-0.19,0.678-0.454,0.921-0.796c0.244-0.34,0.426-0.747,0.543-1.224s0.176-1.002,0.176-1.58v-0.147
			c0-0.558-0.059-1.073-0.176-1.545C70.32,14.181,70.139,13.771,69.895,13.427z M68.234,16.344c0,0.306-0.012,0.585-0.039,0.837
			c-0.025,0.254-0.08,0.472-0.162,0.652s-0.199,0.321-0.355,0.421c-0.154,0.102-0.361,0.152-0.618,0.152
			c-0.291,0-0.527-0.053-0.707-0.154c-0.182-0.104-0.322-0.254-0.42-0.451v-3.026c0.098-0.197,0.238-0.349,0.42-0.454
			c0.18-0.104,0.412-0.158,0.693-0.158c0.247,0,0.45,0.055,0.604,0.161c0.154,0.108,0.275,0.255,0.363,0.44
			c0.086,0.186,0.145,0.401,0.176,0.648c0.029,0.246,0.045,0.507,0.045,0.784V16.344z"/>
		<path fill="#235A9D" d="M77.765,13.438c-0.311-0.348-0.693-0.618-1.151-0.813c-0.457-0.195-0.986-0.293-1.587-0.293
			c-0.592,0-1.114,0.098-1.573,0.293c-0.457,0.194-0.841,0.465-1.149,0.813c-0.311,0.348-0.545,0.758-0.705,1.231
			s-0.238,0.988-0.238,1.541v0.148c0,0.559,0.078,1.072,0.238,1.544c0.16,0.473,0.396,0.88,0.709,1.226
			c0.311,0.344,0.696,0.613,1.153,0.808c0.457,0.195,0.983,0.293,1.579,0.293c0.597,0,1.124-0.098,1.581-0.293
			c0.456-0.194,0.841-0.464,1.151-0.808c0.309-0.346,0.542-0.753,0.698-1.226c0.158-0.472,0.236-0.985,0.236-1.544V16.21
			c0-0.553-0.08-1.067-0.238-1.541C78.309,14.195,78.075,13.785,77.765,13.438z M76.336,16.358c0,0.286-0.021,0.554-0.063,0.802
			c-0.043,0.249-0.113,0.465-0.213,0.647c-0.098,0.183-0.23,0.327-0.396,0.433c-0.168,0.105-0.374,0.158-0.624,0.158
			c-0.252,0-0.465-0.053-0.633-0.158c-0.17-0.105-0.305-0.25-0.403-0.433c-0.102-0.183-0.172-0.398-0.213-0.647
			c-0.039-0.248-0.059-0.516-0.059-0.802V16.21c0-0.276,0.021-0.539,0.063-0.788c0.043-0.248,0.113-0.466,0.21-0.651
			c0.1-0.186,0.232-0.333,0.398-0.443c0.166-0.109,0.375-0.165,0.623-0.165c0.254,0,0.464,0.056,0.634,0.165
			c0.168,0.11,0.303,0.258,0.404,0.443s0.172,0.403,0.211,0.651c0.041,0.249,0.061,0.512,0.061,0.788V16.358z"/>
		<path fill="#235A9D" d="M85.858,13.438c-0.311-0.348-0.693-0.618-1.151-0.813c-0.457-0.195-0.986-0.293-1.587-0.293
			c-0.592,0-1.114,0.098-1.573,0.293c-0.457,0.194-0.841,0.465-1.149,0.813c-0.311,0.348-0.545,0.758-0.705,1.231
			s-0.237,0.988-0.237,1.541v0.148c0,0.559,0.077,1.072,0.237,1.544c0.16,0.473,0.396,0.88,0.709,1.226
			c0.311,0.344,0.696,0.613,1.153,0.808c0.457,0.195,0.983,0.293,1.579,0.293c0.597,0,1.124-0.098,1.581-0.293
			c0.456-0.194,0.841-0.464,1.151-0.808c0.309-0.346,0.542-0.753,0.698-1.226c0.158-0.472,0.236-0.985,0.236-1.544V16.21
			c0-0.553-0.08-1.067-0.238-1.541C86.402,14.195,86.169,13.785,85.858,13.438z M84.43,16.358c0,0.286-0.021,0.554-0.063,0.802
			c-0.043,0.249-0.113,0.465-0.213,0.647c-0.098,0.183-0.23,0.327-0.396,0.433c-0.167,0.105-0.374,0.158-0.624,0.158
			c-0.252,0-0.465-0.053-0.633-0.158c-0.17-0.105-0.304-0.25-0.403-0.433c-0.102-0.183-0.172-0.398-0.213-0.647
			c-0.039-0.248-0.059-0.516-0.059-0.802V16.21c0-0.276,0.021-0.539,0.063-0.788c0.043-0.248,0.113-0.466,0.211-0.651
			c0.1-0.186,0.231-0.333,0.397-0.443c0.166-0.109,0.375-0.165,0.623-0.165c0.254,0,0.465,0.056,0.634,0.165
			c0.168,0.11,0.303,0.258,0.404,0.443s0.172,0.403,0.211,0.651c0.041,0.249,0.061,0.512,0.061,0.788V16.358z"/>
		<polygon fill="#235A9D" points="92.439,15.605 95.105,12.474 92.264,12.474 90.477,14.697 90.236,15.014 90.236,9.271 
			87.864,9.271 87.864,20.088 90.236,20.088 90.236,17.92 90.905,17.252 92.566,20.088 95.283,20.088 		"/>
	</g>
	<g>
		<path fill="#235A9D" d="M3.046,16.23c0,3.413,1.33,6.51,3.485,8.831c2.317,2.131,5.397,3.444,8.787,3.444
			c7.165,0,12.997-5.84,12.997-13c0-3.396-1.317-6.48-3.454-8.797c-2.32-2.151-5.414-3.478-8.817-3.478
			C8.879,3.231,3.046,9.064,3.046,16.23z M19.909,7.079l0.009,2.871c-0.239-0.07-0.558-0.1-0.965-0.1
			c-1.182,0-1.769,0.506-1.769,1.532v0.961h2.445v2.713h-2.445v9.849h-3.924v-9.849h-1.828v-2.713h1.828v-0.992
			c0-1.432,0.419-2.544,1.262-3.339c0.845-0.786,2.03-1.183,3.559-1.183C18.635,6.83,19.244,6.91,19.909,7.079z"/>
		<path fill="#264A8F" d="M15.676,2.646c1.341,0,2.635,0.203,3.854,0.575c-1.323-0.456-2.737-0.714-4.213-0.714
			c-7.174,0-13.007,5.825-13.007,13c0,1.474,0.259,2.887,0.714,4.208c-0.372-1.219-0.575-2.513-0.575-3.853
			C2.45,8.567,8.373,2.646,15.676,2.646z"/>
		<path fill="#264A8F" d="M25.622,5.922c2.341,2.519,3.786,5.882,3.786,9.583c0,7.773-6.321,14.087-14.09,14.087
			c-3.698,0-7.056-1.438-9.573-3.771c2.575,2.768,6.233,4.511,10.299,4.511c7.77,0,14.099-6.326,14.099-14.103
			C30.143,12.158,28.395,8.495,25.622,5.922z"/>
		<path fill="#264A8F" d="M3.046,16.23c0-7.166,5.833-13,12.998-13c3.404,0,6.498,1.327,8.817,3.478
			C23.414,5.14,21.59,3.929,19.53,3.22c-1.22-0.372-2.514-0.575-3.854-0.575C8.373,2.646,2.45,8.567,2.45,15.861
			c0,1.34,0.203,2.634,0.575,3.853c0.71,2.068,1.929,3.897,3.506,5.348C4.376,22.74,3.046,19.644,3.046,16.23z"/>
		<path fill="#FFFFFF" d="M29.04,16.23c0-1.469-0.257-2.876-0.707-4.194c0.365,1.212,0.567,2.495,0.567,3.825
			c0,7.301-5.921,13.227-13.225,13.227c-1.346,0-2.643-0.205-3.866-0.578c1.33,0.461,2.751,0.723,4.234,0.723
			C23.208,29.232,29.04,23.404,29.04,16.23z"/>
		<path fill="#FFFFFF" d="M16.043,2.141c3.699,0,7.061,1.442,9.578,3.781c-2.574-2.771-6.234-4.518-10.304-4.518
			c-7.78,0-14.101,6.331-14.101,14.102c0,4.079,1.75,7.744,4.528,10.316C3.4,23.305,1.953,19.938,1.953,16.23
			C1.953,8.46,8.274,2.141,16.043,2.141z"/>
		<path fill="#FFFFFF" d="M28.9,15.861c0-1.33-0.202-2.613-0.567-3.825c-0.705-2.058-1.91-3.879-3.472-5.327
			c2.136,2.316,3.454,5.4,3.454,8.797c0,7.16-5.832,13-12.997,13c-3.389,0-6.47-1.313-8.787-3.444
			c1.438,1.548,3.242,2.744,5.279,3.448c1.224,0.373,2.521,0.578,3.866,0.578C22.979,29.088,28.9,23.162,28.9,15.861z"/>
		<path fill="#FFFFFF" d="M29.407,15.506c0-3.701-1.444-7.064-3.786-9.583c-2.518-2.339-5.879-3.781-9.578-3.781
			c-7.77,0-14.09,6.319-14.09,14.089c0,3.707,1.447,7.074,3.791,9.592c2.517,2.332,5.875,3.771,9.573,3.771
			C23.086,29.593,29.407,23.279,29.407,15.506z M3.024,19.714c-0.456-1.321-0.714-2.734-0.714-4.208c0-7.175,5.833-13,13.007-13
			c1.476,0,2.89,0.259,4.213,0.714c4.211,1.281,7.528,4.605,8.803,8.816c0.45,1.318,0.707,2.726,0.707,4.194
			c0,7.174-5.832,13.002-12.997,13.002c-1.483,0-2.904-0.262-4.234-0.723C7.612,27.228,4.302,23.913,3.024,19.714z"/>
		<path fill="#FFFFFF" d="M3.024,19.714c1.278,4.199,4.588,7.514,8.785,8.796c-2.037-0.704-3.841-1.9-5.279-3.448
			C4.953,23.611,3.735,21.782,3.024,19.714z"/>
		<path fill="#FFFFFF" d="M28.333,12.036c-1.274-4.211-4.592-7.535-8.803-8.816c2.06,0.708,3.883,1.919,5.331,3.489
			C26.423,8.157,27.628,9.979,28.333,12.036z"/>
		<path fill="#FFFFFF" d="M13.259,11.352v0.992h-1.828v2.713h1.828v9.849h3.924v-9.849h2.445v-2.713h-2.445v-0.961
			c0-1.026,0.587-1.532,1.769-1.532c0.407,0,0.726,0.029,0.965,0.1l-0.009-2.871C19.244,6.91,18.635,6.83,18.08,6.83
			c-1.529,0-2.714,0.397-3.559,1.183C13.678,8.808,13.259,9.92,13.259,11.352z"/>
	</g>
</g>
</svg>
