<?xml version="1.0" encoding="utf-8"?>
<!-- Generator: Adobe Illustrator 16.0.0, SVG Export Plug-In . SVG Version: 6.00 Build 0)  -->
<!DOCTYPE svg PUBLIC "-//W3C//DTD SVG 1.1//EN" "http://www.w3.org/Graphics/SVG/1.1/DTD/svg11.dtd">
<svg version="1.1" id="Layer_1" xmlns="http://www.w3.org/2000/svg" xmlns:xlink="http://www.w3.org/1999/xlink" x="0px" y="0px"
	 width="140px" height="140px" viewBox="0 0 140 140" enable-background="new 0 0 140 140" xml:space="preserve">
<path fill="#F5F6F6" d="M140,70c0,4.596-0.448,9.148-1.346,13.656c-0.896,4.508-2.224,8.885-3.982,13.132
	c-1.76,4.246-3.916,8.28-6.469,12.102c-2.554,3.821-5.455,7.358-8.705,10.608s-6.787,6.151-10.608,8.705
	c-3.821,2.553-7.855,4.709-12.103,6.469c-4.246,1.759-8.623,3.086-13.131,3.982C79.148,139.552,74.596,140,70,140
	s-9.148-0.448-13.656-1.346c-4.508-0.896-8.885-2.224-13.132-3.982c-4.246-1.76-8.28-3.916-12.102-6.469
	c-3.821-2.554-7.357-5.455-10.607-8.705s-6.152-6.787-8.706-10.608c-2.553-3.821-4.709-7.855-6.468-12.102
	c-1.759-4.247-3.087-8.624-3.983-13.132C0.448,79.148,0,74.596,0,70c0-4.596,0.448-9.148,1.345-13.656
	c0.896-4.508,2.224-8.885,3.983-13.132c1.759-4.246,3.915-8.28,6.468-12.102c2.554-3.822,5.456-7.358,8.706-10.608
	s6.786-6.152,10.607-8.706c3.822-2.553,7.856-4.709,12.102-6.469c4.247-1.759,8.624-3.086,13.132-3.983C60.852,0.448,65.404,0,70,0
	s9.148,0.448,13.656,1.345c4.508,0.897,8.885,2.225,13.131,3.983c4.247,1.759,8.281,3.916,12.103,6.469
	c3.821,2.554,7.358,5.456,10.608,8.706s6.151,6.786,8.705,10.608c2.553,3.821,4.709,7.855,6.469,12.102
	c1.759,4.247,3.086,8.624,3.982,13.132C139.552,60.852,140,65.404,140,70z"/>
<path fill="#EDEDED" d="M116.287,70.831c0,6.144-1.176,12.054-3.526,17.73s-5.699,10.687-10.044,15.03
	c-4.344,4.345-9.354,7.693-15.03,10.044s-11.587,3.526-17.73,3.526s-12.054-1.176-17.73-3.526s-10.687-5.699-15.031-10.044
	c-4.345-4.344-7.692-9.354-10.043-15.03s-3.527-11.587-3.527-17.73s1.176-12.054,3.527-17.73s5.699-10.687,10.043-15.031
	c4.344-4.345,9.354-7.692,15.031-10.043S63.813,24.5,69.956,24.5s12.054,1.176,17.73,3.527s10.687,5.699,15.03,10.043
	c4.345,4.344,7.693,9.354,10.044,15.031S116.287,64.688,116.287,70.831z"/>
<path fill-rule="evenodd" clip-rule="evenodd" fill="#004F79" d="M63.094,43.977h15.891c3.085,0,5.633,2.548,5.633,5.632v42.241
	c0,3.084-2.548,5.632-5.633,5.632H63.094c-3.084,0-5.632-2.548-5.632-5.632V49.609C57.462,46.525,60.01,43.977,63.094,43.977z"/>
<path fill-rule="evenodd" clip-rule="evenodd" fill="#FFFFFF" d="M59.942,48.469h22.193c0.067,0,0.067,0.067,0.067,0.067v43.851
	c0,0.067-0.067,0.067-0.067,0.067H59.942c-0.067,0-0.067-0.067-0.067-0.067V48.536C59.875,48.536,59.875,48.469,59.942,48.469z"/>
<path fill-rule="evenodd" clip-rule="evenodd" fill="#58A5CF" d="M66.916,45.318h8.247c0.201,0,0.402,0.201,0.402,0.402
	s-0.201,0.402-0.402,0.402h-8.247c-0.201,0-0.402-0.201-0.402-0.402S66.715,45.318,66.916,45.318z"/>
<path fill="#58A5CF" d="M72.414,94.867c0,0.895-0.447,1.342-1.341,1.342s-1.341-0.447-1.341-1.342c0-0.894,0.447-1.341,1.341-1.341
	S72.414,93.974,72.414,94.867z"/>
<rect x="61.418" y="60.605" fill="#2A7EAE" width="4.291" height="4.291"/>
<polygon fill="#FFFFFF" points="63.965,63.689 63.563,63.689 63.563,62.214 63.094,62.349 63.094,62.013 63.898,61.745 
	63.965,61.745 "/>
<rect x="66.38" y="60.605" fill="#2A7EAE" width="4.291" height="4.291"/>
<path fill="#FFFFFF" d="M69.195,63.689h-1.273v-0.268l0.604-0.67c0.066-0.067,0.134-0.201,0.201-0.269
	c0.066-0.067,0.066-0.134,0.066-0.201c0-0.067,0-0.134-0.066-0.201c-0.067-0.067-0.135-0.067-0.201-0.067
	c-0.067,0-0.135,0-0.201,0.067c-0.067,0.067-0.067,0.134-0.067,0.201h-0.402c0-0.134,0-0.201,0.067-0.335
	c0.066-0.067,0.134-0.201,0.201-0.201c0.066,0,0.201-0.067,0.335-0.067c0.201,0,0.335,0.067,0.47,0.134
	c0.134,0.067,0.134,0.201,0.134,0.402c0,0.067,0,0.201-0.067,0.268c-0.066,0.067-0.134,0.201-0.268,0.335l-0.402,0.469h0.871V63.689
	z"/>
<rect x="71.408" y="60.605" fill="#2A7EAE" width="4.291" height="4.291"/>
<path fill="#FFFFFF" d="M73.285,62.617h0.201c0.067,0,0.135,0,0.201-0.067c0.067-0.067,0.067-0.134,0.067-0.201
	c0-0.067,0-0.134-0.067-0.201c-0.066-0.067-0.134-0.067-0.201-0.067c-0.066,0-0.134,0-0.201,0.067
	c-0.066,0.067-0.066,0.067-0.066,0.134h-0.402c0-0.067,0-0.201,0.066-0.268c0.067-0.067,0.135-0.134,0.201-0.201
	c0.067-0.067,0.201-0.067,0.336-0.067c0.201,0,0.335,0.067,0.469,0.134c0.135,0.067,0.201,0.201,0.201,0.402
	c0,0.067,0,0.134-0.066,0.269c-0.067,0.067-0.135,0.134-0.201,0.134c0.134,0.067,0.201,0.067,0.268,0.201
	c0.067,0.067,0.067,0.134,0.067,0.269c0,0.201-0.067,0.335-0.201,0.402c-0.134,0.067-0.269,0.134-0.47,0.134
	s-0.335-0.067-0.469-0.134c-0.135-0.067-0.201-0.201-0.201-0.402h0.402c0,0.067,0,0.134,0.066,0.201
	c0.067,0.067,0.135,0.067,0.201,0.067c0.067,0,0.135,0,0.201-0.067c0.067-0.067,0.067-0.134,0.067-0.201
	c0-0.201-0.134-0.269-0.335-0.269h-0.201v-0.268H73.285z"/>
<rect x="76.438" y="60.605" fill="#2A7EAE" width="4.291" height="4.291"/>
<path fill="#FFFFFF" d="M78.248,63.019h0.401v-0.67v0.067L78.248,63.019z M79.052,63.019h0.201v0.335h-0.201v0.402h-0.402v-0.402
	h-0.737v-0.269l0.805-1.274h0.402v1.207H79.052z"/>
<rect x="61.418" y="50.749" fill="#E0E1E0" width="19.311" height="1.341"/>
<rect x="61.418" y="52.895" fill="#E0E1E0" width="16.092" height="1.341"/>
<rect x="61.418" y="55.04" fill="#E0E1E0" width="18.506" height="1.341"/>
<rect x="61.418" y="57.253" fill="#E0E1E0" width="16.293" height="1.341"/>
<path fill="#69AA45" d="M98.729,78.729c0,6.601-5.399,12-12,12s-12-5.399-12-12c0-6.6,5.399-12,12-12S98.729,72.13,98.729,78.729z"
	/>
<polyline fill="none" stroke="#FFFFFF" stroke-width="1.6" stroke-linecap="round" stroke-linejoin="round" stroke-miterlimit="10" points="
	92.97,73.93 85.289,82.57 80.49,78.729 "/>
</svg>
