<?xml version="1.0" encoding="utf-8"?>
<!-- Generator: Adobe Illustrator 16.0.0, SVG Export Plug-In . SVG Version: 6.00 Build 0)  -->
<!DOCTYPE svg PUBLIC "-//W3C//DTD SVG 1.1//EN" "http://www.w3.org/Graphics/SVG/1.1/DTD/svg11.dtd">
<svg version="1.1" id="Layer_1" xmlns="http://www.w3.org/2000/svg" xmlns:xlink="http://www.w3.org/1999/xlink" x="0px" y="0px"
	 width="140px" height="140px" viewBox="0 0 140 140" enable-background="new 0 0 140 140" xml:space="preserve">
<path fill="#F5F6F6" d="M140,70c0,4.596-0.448,9.148-1.346,13.656c-0.896,4.508-2.224,8.885-3.982,13.132
	c-1.76,4.246-3.916,8.28-6.469,12.102c-2.554,3.821-5.455,7.358-8.705,10.608s-6.787,6.151-10.608,8.705
	c-3.821,2.553-7.855,4.709-12.103,6.469c-4.246,1.759-8.623,3.086-13.131,3.982C79.148,139.552,74.596,140,70,140
	c-4.596,0-9.148-0.448-13.656-1.346c-4.508-0.896-8.885-2.224-13.132-3.982c-4.246-1.76-8.28-3.916-12.102-6.469
	c-3.821-2.554-7.357-5.455-10.607-8.705s-6.152-6.787-8.706-10.608c-2.553-3.821-4.709-7.855-6.468-12.102
	c-1.759-4.247-3.087-8.624-3.983-13.132C0.448,79.148,0,74.596,0,70c0-4.596,0.448-9.148,1.345-13.656
	c0.896-4.508,2.224-8.885,3.983-13.132c1.759-4.246,3.915-8.28,6.468-12.102c2.554-3.822,5.456-7.358,8.706-10.608
	s6.786-6.152,10.607-8.706c3.822-2.553,7.856-4.709,12.102-6.469c4.247-1.759,8.624-3.086,13.132-3.983C60.852,0.448,65.404,0,70,0
	c4.596,0,9.148,0.448,13.656,1.345c4.508,0.897,8.885,2.225,13.131,3.983c4.247,1.759,8.281,3.916,12.103,6.469
	c3.821,2.554,7.358,5.456,10.608,8.706s6.151,6.786,8.705,10.608c2.553,3.821,4.709,7.855,6.469,12.102
	c1.759,4.247,3.086,8.624,3.982,13.132C139.552,60.852,140,65.404,140,70z"/>
<path fill="#EDEDED" d="M116.287,70.831c0,6.144-1.176,12.054-3.526,17.73s-5.699,10.687-10.044,15.03
	c-4.344,4.345-9.354,7.693-15.03,10.044s-11.587,3.526-17.73,3.526s-12.054-1.176-17.73-3.526s-10.687-5.699-15.031-10.044
	c-4.345-4.344-7.692-9.354-10.043-15.03s-3.527-11.587-3.527-17.73s1.176-12.054,3.527-17.73s5.699-10.687,10.043-15.031
	c4.344-4.345,9.354-7.692,15.031-10.043S63.813,24.5,69.956,24.5s12.054,1.176,17.73,3.527s10.687,5.699,15.03,10.043
	c4.345,4.344,7.693,9.354,10.044,15.031S116.287,64.688,116.287,70.831z"/>
<g>
	<defs>
		<path id="SVGID_1_" d="M69.956,24.5c-6.144,0-12.054,1.176-17.73,3.527S41.54,33.726,37.195,38.07
			c-4.345,4.344-7.692,9.354-10.043,15.031s-3.527,11.586-3.527,17.73s1.176,12.054,3.527,17.73s5.699,10.687,10.043,15.03
			c4.344,4.345,9.354,7.693,15.031,10.044s11.586,3.526,17.73,3.526s12.054-1.176,17.73-3.526s10.687-5.699,15.03-10.044
			c4.345-4.344,7.693-9.354,10.044-15.03s3.526-11.587,3.526-17.73s-1.176-12.054-3.526-17.73
			c-2.352-5.676-5.699-10.687-10.044-15.031c-4.344-4.345-9.354-7.692-15.03-10.043S76.1,24.5,69.956,24.5z"/>
	</defs>
	<clipPath id="SVGID_2_">
		<use xlink:href="#SVGID_1_"  overflow="visible"/>
	</clipPath>
	<g clip-path="url(#SVGID_2_)" enable-background="new    ">
		<g>
			<defs>
				<rect id="SVGID_3_" x="24" y="25" width="92" height="92"/>
			</defs>
			<clipPath id="SVGID_4_">
				<use xlink:href="#SVGID_3_"  overflow="visible"/>
			</clipPath>
			<polygon clip-path="url(#SVGID_4_)" fill-rule="evenodd" clip-rule="evenodd" fill="#FED6B7" points="42.466,98.389 
				57.552,103.016 61.24,91.215 73.711,76.731 51.316,69.758 			"/>
			<path clip-path="url(#SVGID_4_)" fill-rule="evenodd" clip-rule="evenodd" fill="#FED6B7" d="M82.763,51.923
				c1.073,1.14,1.073,2.95-0.067,4.023L63.05,75.391c-1.14,1.072-2.95,1.072-4.023-0.066c-1.073-1.141-1.073-2.951,0.067-4.023
				L78.74,51.856C79.88,50.783,81.689,50.783,82.763,51.923z"/>
			<path clip-path="url(#SVGID_4_)" fill-rule="evenodd" clip-rule="evenodd" fill="#004F79" d="M59.094,37.977h15.89
				c3.085,0,5.633,2.548,5.633,5.632v42.241c0,3.084-2.548,5.632-5.633,5.632h-15.89c-3.084,0-5.632-2.548-5.632-5.632V43.609
				C53.462,40.525,56.01,37.977,59.094,37.977z"/>
			<path clip-path="url(#SVGID_4_)" fill-rule="evenodd" clip-rule="evenodd" fill="#FFFFFF" d="M55.943,42.469h22.194
				c0.066,0,0.066,0.067,0.066,0.067v43.851c0,0.067-0.066,0.067-0.066,0.067H55.943c-0.067,0-0.067-0.067-0.067-0.067V42.536
				C55.876,42.536,55.876,42.469,55.943,42.469z"/>
			<path clip-path="url(#SVGID_4_)" fill-rule="evenodd" clip-rule="evenodd" fill="#58A5CF" d="M62.916,39.318h8.247
				c0.201,0,0.402,0.201,0.402,0.402s-0.201,0.402-0.402,0.402h-8.247c-0.201,0-0.402-0.201-0.402-0.402
				S62.715,39.318,62.916,39.318z"/>
			<path clip-path="url(#SVGID_4_)" fill="#58A5CF" d="M68.414,88.867c0,0.895-0.447,1.342-1.341,1.342s-1.341-0.447-1.341-1.342
				c0-0.894,0.447-1.341,1.341-1.341S68.414,87.974,68.414,88.867z"/>
			<path clip-path="url(#SVGID_4_)" fill-rule="evenodd" clip-rule="evenodd" fill="#FED6B7" d="M82.025,67.814
				c1.072,1.14,1.072,2.95-0.067,4.023l-3.821,3.688c-1.141,1.073-2.951,1.073-4.023-0.067c-1.072-1.139-1.072-2.949,0.066-4.022
				l3.822-3.688C79.143,66.674,80.952,66.674,82.025,67.814z"/>
			<path clip-path="url(#SVGID_4_)" fill-rule="evenodd" clip-rule="evenodd" fill="#FED6B7" d="M82.83,59.701
				c1.072,1.14,1.072,2.95-0.067,4.023l-3.285,3.151c-1.14,1.073-2.95,1.073-4.022-0.067c-1.073-1.14-1.073-2.95,0.066-4.023
				l3.285-3.151C79.88,58.494,81.689,58.561,82.83,59.701z"/>
			<polygon clip-path="url(#SVGID_4_)" fill-rule="evenodd" clip-rule="evenodd" fill="#CBE9FA" points="41.527,93.561 
				60.905,99.596 54.535,120.314 33.28,120.314 			"/>
			<path clip-path="url(#SVGID_4_)" fill-rule="evenodd" clip-rule="evenodd" fill="#FED6B7" d="M47.964,87.057l1.944,0.604
				l0.537-2.48l4.224-19.646c0.872-4.09-1.676-5.498-4.157-6.235l-5.029,23.199C45.081,84.51,46.154,86.521,47.964,87.057z"/>
			<path clip-path="url(#SVGID_4_)" fill-rule="evenodd" clip-rule="evenodd" fill="#FFF3E9" d="M51.384,59.634
				c-0.269-0.134-0.604-0.201-0.872-0.335l-1.006,4.693C51.183,63.992,51.316,61.377,51.384,59.634z"/>
			<path clip-path="url(#SVGID_4_)" fill-rule="evenodd" clip-rule="evenodd" fill="#FFF3E9" d="M75.99,63.255l0.872-0.805
				c1.811,0.335,2.749,1.408,3.018,3.151l-0.872,0.805C76.729,68.619,74.047,64.998,75.99,63.255z"/>
			<path clip-path="url(#SVGID_4_)" fill-rule="evenodd" clip-rule="evenodd" fill="#FFF3E9" d="M74.717,71.837l0.871-0.805
				c1.811,0.335,2.75,1.408,3.018,3.151l-0.871,0.805C75.455,77.201,72.772,73.58,74.717,71.837z"/>
			<path clip-path="url(#SVGID_4_)" fill-rule="evenodd" clip-rule="evenodd" fill="#DEB99B" d="M51.115,77.737
				c1.475,0.067,2.347,0.872,2.347,1.811v-8.516l1.475-6.571c0.469-1.944-1.274-4.09-2.749-4.492
				c1.274,0.335,2.347,2.079,1.944,3.822C53.529,66.674,51.182,77.67,51.115,77.737z"/>
			<path clip-path="url(#SVGID_4_)" fill-rule="evenodd" clip-rule="evenodd" fill="#FED6B7" d="M80.147,103.752l6.974,16.563
				h14.684c0.67-0.604,1.273-1.141,1.877-1.744l-7.174-17.902L80.147,103.752z"/>
			<polygon clip-path="url(#SVGID_4_)" fill-rule="evenodd" clip-rule="evenodd" fill="#CBE9FA" points="101.67,107.574 
				106.632,120.314 85.512,120.314 83.365,114.883 			"/>
			<path clip-path="url(#SVGID_4_)" fill-rule="evenodd" clip-rule="evenodd" fill="#FED6B7" d="M65.665,90.745l7.979,11.398
				c1.006,1.475,6.37,5.968,7.912,5.096c1.542-0.938-0.604-5.9-1.677-7.376l-6.168-7.711C70.224,87.728,67.207,89.605,65.665,90.745
				z"/>
			<path clip-path="url(#SVGID_4_)" fill-rule="evenodd" clip-rule="evenodd" fill="#FED6B7" d="M68.146,68.149L74.582,82.9
				c0.537-2.682,4.56-3.084,6.035-0.537c0.134-2.815,3.955-3.486,5.699-1.475c0.536-2.548,4.626-2.816,5.833-0.066l5.498,12.471
				c1.542,3.486,1.677,8.851,0.938,11.331c-2.078,7.241-11.666,7.51-15.086,5.297c-2.615-1.743-4.693-2.682-5.564-4.56
				l-15.69-34.664C60.234,66.339,66.604,64.528,68.146,68.149z"/>
			<path clip-path="url(#SVGID_4_)" fill-rule="evenodd" clip-rule="evenodd" fill="#DEB99B" d="M79.879,81.425
				c0.336,0.269,0.537,0.536,0.805,0.938c0-0.201,0.067-0.335,0.067-0.536c1.073,2.414,2.347,5.498,2.347,5.498
				S81.086,83.705,79.879,81.425z M74.582,82.833c0.067-0.269,0.135-0.47,0.269-0.671c1.073,2.481,2.749,6.772,2.749,6.772
				s-2.146-4.224-3.018-6.034C74.582,82.967,74.582,82.9,74.582,82.833z M88.529,85.18c0,0-1.073-2.48-2.012-4.693
				c-0.067,0.135-0.067,0.269-0.135,0.402c-0.134-0.201-0.335-0.335-0.536-0.469C87.054,82.564,88.529,85.18,88.529,85.18z"/>
			<path clip-path="url(#SVGID_4_)" fill-rule="evenodd" clip-rule="evenodd" fill="#FFF3E9" d="M67.341,68.351l0.536,1.274
				c-1.005,1.81-2.548,2.414-4.492,2.011l-0.537-1.207C61.374,67.144,66.201,65.602,67.341,68.351z"/>
			<path clip-path="url(#SVGID_4_)" fill-rule="evenodd" clip-rule="evenodd" fill="#FFF3E9" d="M66.469,90.343
				c-0.268,0.134-0.536,0.269-0.804,0.47l2.749,3.889C69.554,93.427,67.676,91.55,66.469,90.343z"/>
			<polygon clip-path="url(#SVGID_4_)" fill-rule="evenodd" clip-rule="evenodd" fill="#DEB99B" points="70.962,89.807 
				74.851,98.321 69.889,89.605 			"/>
			<rect x="57.418" y="54.605" clip-path="url(#SVGID_4_)" fill="#2A7EAE" width="4.291" height="4.291"/>
			<polygon clip-path="url(#SVGID_4_)" fill="#FFFFFF" points="59.966,57.689 59.563,57.689 59.563,56.214 59.094,56.349 
				59.094,56.013 59.899,55.745 59.966,55.745 			"/>
			<rect x="62.379" y="54.605" clip-path="url(#SVGID_4_)" fill="#2A7EAE" width="4.291" height="4.291"/>
			<path clip-path="url(#SVGID_4_)" fill="#FFFFFF" d="M65.195,57.689h-1.274v-0.268l0.604-0.67
				c0.067-0.067,0.134-0.201,0.201-0.269c0.067-0.067,0.067-0.134,0.067-0.201c0-0.067,0-0.134-0.067-0.201
				c-0.067-0.067-0.134-0.067-0.201-0.067s-0.134,0-0.201,0.067c-0.067,0.067-0.067,0.134-0.067,0.201h-0.402
				c0-0.134,0-0.201,0.067-0.335c0.067-0.067,0.134-0.201,0.201-0.201c0.067,0,0.201-0.067,0.335-0.067
				c0.201,0,0.335,0.067,0.469,0.134s0.134,0.201,0.134,0.402c0,0.067,0,0.201-0.067,0.268c-0.067,0.067-0.134,0.201-0.268,0.335
				l-0.402,0.469h0.872V57.689z"/>
			<rect x="67.408" y="54.605" clip-path="url(#SVGID_4_)" fill="#2A7EAE" width="4.291" height="4.291"/>
			<path clip-path="url(#SVGID_4_)" fill="#FFFFFF" d="M69.286,56.617h0.201c0.067,0,0.134,0,0.201-0.067
				c0.067-0.067,0.067-0.134,0.067-0.201c0-0.067,0-0.134-0.067-0.201c-0.067-0.067-0.134-0.067-0.201-0.067
				c-0.067,0-0.134,0-0.201,0.067c-0.067,0.067-0.067,0.067-0.067,0.134h-0.402c0-0.067,0-0.201,0.067-0.268
				c0.067-0.067,0.134-0.134,0.201-0.201c0.067-0.067,0.201-0.067,0.335-0.067c0.201,0,0.335,0.067,0.469,0.134
				c0.134,0.067,0.201,0.201,0.201,0.402c0,0.067,0,0.134-0.067,0.269c-0.067,0.067-0.134,0.134-0.201,0.134
				c0.134,0.067,0.201,0.067,0.268,0.201c0.067,0.067,0.067,0.134,0.067,0.269c0,0.201-0.067,0.335-0.201,0.402
				c-0.134,0.067-0.269,0.134-0.47,0.134s-0.335-0.067-0.469-0.134c-0.134-0.067-0.201-0.201-0.201-0.402h0.402
				c0,0.067,0,0.134,0.067,0.201c0.067,0.067,0.134,0.067,0.201,0.067c0.067,0,0.134,0,0.201-0.067
				c0.067-0.067,0.067-0.134,0.067-0.201c0-0.201-0.134-0.269-0.335-0.269h-0.201v-0.268H69.286z"/>
			<rect x="72.438" y="54.605" clip-path="url(#SVGID_4_)" fill="#2A7EAE" width="4.291" height="4.291"/>
			<path clip-path="url(#SVGID_4_)" fill="#FFFFFF" d="M74.248,57.019h0.401v-0.67v0.067L74.248,57.019z M75.052,57.019h0.201v0.335
				h-0.201v0.402h-0.402v-0.402h-0.737v-0.269l0.805-1.274h0.402v1.207H75.052z"/>
			<rect x="57.418" y="44.749" clip-path="url(#SVGID_4_)" fill="#E0E1E0" width="19.311" height="1.341"/>
			<rect x="57.418" y="46.895" clip-path="url(#SVGID_4_)" fill="#E0E1E0" width="16.092" height="1.341"/>
			<rect x="57.418" y="49.04" clip-path="url(#SVGID_4_)" fill="#E0E1E0" width="18.506" height="1.341"/>
			<rect x="57.418" y="51.253" clip-path="url(#SVGID_4_)" fill="#E0E1E0" width="16.293" height="1.341"/>
		</g>
	</g>
</g>
</svg>
