<?xml version="1.0" encoding="utf-8"?>
<!-- Generator: Adobe Illustrator 16.0.0, SVG Export Plug-In . SVG Version: 6.00 Build 0)  -->
<!DOCTYPE svg PUBLIC "-//W3C//DTD SVG 1.1//EN" "http://www.w3.org/Graphics/SVG/1.1/DTD/svg11.dtd">
<svg version="1.1" id="Layer_1" xmlns="http://www.w3.org/2000/svg" xmlns:xlink="http://www.w3.org/1999/xlink" x="0px" y="0px"
	 width="18.972px" height="14.45px" viewBox="0 0.218 18.972 14.45" enable-background="new 0 0.218 18.972 14.45"
	 xml:space="preserve">
<g id="Layer_2">
</g>
<path fill="#FFFFFF" d="M16.155,5.813c-0.521-1.746-2.191-2.986-4.011-2.957c-1.037-1.635-2.848-2.639-4.793-2.639
	c-2.969,0-5.357,2.176-5.647,5.099C0.633,6.074,0,7.289,0,8.611c0,2.226,1.812,4.037,4.039,4.037h2.538v1.087
	c0,0.516,0.417,0.934,0.929,0.934h1.042l2.923-0.01c0.512,0,0.926-0.42,0.926-0.935v-1.078h3.324l0.795-0.06v-0.088
	c1.445-0.43,2.457-1.762,2.457-3.299C18.972,7.521,17.782,6.12,16.155,5.813z M8.179,13.05l0-3.831H7.603l1.885-1.22l1.882,1.218
	h-0.576v3.826H8.482L8.179,13.05z M12.411,11.029v-0.272c0.437-0.146,0.785-0.497,0.921-0.962c0.182-0.619-0.062-1.271-0.604-1.623
	l-2.466-1.597c-0.469-0.293-1.1-0.29-1.561,0.008l-2.46,1.593C5.7,8.526,5.459,9.18,5.642,9.802c0.138,0.46,0.485,0.811,0.92,0.956
	l0.001,0.273H4.039c-1.336,0-2.423-1.085-2.423-2.42c0-0.883,0.482-1.697,1.258-2.125L3.28,6.263l0.011-0.464
	c0.055-2.224,1.838-3.965,4.059-3.965c1.539,0,2.929,0.857,3.627,2.237l0.264,0.521l0.578-0.088
	c0.121-0.018,0.243-0.031,0.369-0.031c1.263,0,2.338,0.943,2.511,2.245l0.162,0.648h0.663c1.01,0,1.832,0.822,1.833,1.833
	c0,0.957-0.749,1.759-1.673,1.825L12.411,11.029z"/>
</svg>
