<?xml version="1.0" encoding="utf-8"?>
<!-- Generator: Adobe Illustrator 16.0.0, SVG Export Plug-In . SVG Version: 6.00 Build 0)  -->
<!DOCTYPE svg PUBLIC "-//W3C//DTD SVG 1.1//EN" "http://www.w3.org/Graphics/SVG/1.1/DTD/svg11.dtd">
<svg version="1.1" id="Layer_1" xmlns="http://www.w3.org/2000/svg" xmlns:xlink="http://www.w3.org/1999/xlink" x="0px" y="0px"
	 width="140px" height="140px" viewBox="0 0 140 140" enable-background="new 0 0 140 140" xml:space="preserve">
<path fill="#F5F6F6" d="M140,70c0,4.596-0.448,9.148-1.346,13.656c-0.896,4.508-2.224,8.885-3.982,13.132
	c-1.76,4.246-3.916,8.28-6.469,12.102c-2.554,3.821-5.455,7.358-8.705,10.608s-6.787,6.151-10.608,8.705
	c-3.821,2.553-7.855,4.709-12.103,6.469c-4.246,1.759-8.623,3.086-13.131,3.982C79.148,139.552,74.596,140,70,140
	c-4.596,0-9.148-0.448-13.656-1.346c-4.508-0.896-8.885-2.224-13.132-3.982c-4.246-1.76-8.28-3.916-12.102-6.469
	c-3.821-2.554-7.357-5.455-10.607-8.705s-6.152-6.787-8.706-10.608c-2.553-3.821-4.709-7.855-6.468-12.102
	c-1.759-4.247-3.087-8.624-3.983-13.132C0.448,79.148,0,74.596,0,70c0-4.596,0.448-9.148,1.345-13.656
	c0.896-4.508,2.224-8.885,3.983-13.132c1.759-4.246,3.915-8.28,6.468-12.102c2.554-3.822,5.456-7.358,8.706-10.608
	s6.786-6.152,10.607-8.706c3.822-2.553,7.856-4.709,12.102-6.469c4.247-1.759,8.624-3.086,13.132-3.983C60.852,0.448,65.404,0,70,0
	c4.596,0,9.148,0.448,13.656,1.345c4.508,0.897,8.885,2.225,13.131,3.983c4.247,1.759,8.281,3.916,12.103,6.469
	c3.821,2.554,7.358,5.456,10.608,8.706s6.151,6.786,8.705,10.608c2.553,3.821,4.709,7.855,6.469,12.102
	c1.759,4.247,3.086,8.624,3.982,13.132C139.552,60.852,140,65.404,140,70z"/>
<circle fill="#EDEDED" cx="69.956" cy="70.831" r="46.331"/>
<g>
	<defs>
		<path id="SVGID_1_" d="M69.956,24.5c-6.144,0-12.054,1.176-17.73,3.527S41.54,33.726,37.195,38.07
			c-4.345,4.344-7.692,9.354-10.043,15.031s-3.527,11.586-3.527,17.73s1.176,12.054,3.527,17.73s5.699,10.687,10.043,15.03
			c4.344,4.345,9.354,7.693,15.031,10.044s11.586,3.526,17.73,3.526s12.054-1.176,17.73-3.526s10.687-5.699,15.03-10.044
			c4.345-4.344,7.693-9.354,10.044-15.03s3.526-11.587,3.526-17.73s-1.176-12.054-3.526-17.73
			c-2.352-5.676-5.699-10.687-10.044-15.031c-4.344-4.345-9.354-7.692-15.03-10.043S76.1,24.5,69.956,24.5z"/>
	</defs>
	<clipPath id="SVGID_2_">
		<use xlink:href="#SVGID_1_"  overflow="visible"/>
	</clipPath>
	<path clip-path="url(#SVGID_2_)" fill="#767677" d="M58.197,50.29c1.426,3.727,5.947,6.469,11.367,6.469s14.838-0.638,14.838,2.968
		c0,8.195-6.643,14.839-14.838,14.839c-8.19,0-14.838-6.644-14.838-14.839C54.726,56.121,56.065,52.86,58.197,50.29z M69.564,80.5
		c11.471,0,20.774-10.631,20.774-23.741c0-13.111-9.303-23.742-20.774-23.742S48.79,43.647,48.79,56.759S58.093,80.5,69.564,80.5z"
		/>
	<path clip-path="url(#SVGID_2_)" fill="#767677" d="M105.176,104.242c0-9.837-7.969-17.807-17.806-17.807H73.754l1.333,1.238
		c0.698,0.649,0.698,1.702,0,2.352l-2.845,2.642c-0.698,0.649-0.994,1.829-0.661,2.635l5.481,13.259
		c0.334,0.807,0.191,2.067-0.316,2.816l-6.261,9.216c-0.509,0.749-1.333,0.749-1.842,0l-6.261-9.216
		c-0.508-0.749-0.65-2.01-0.317-2.816l5.483-13.259c0.333-0.806,0.037-1.986-0.662-2.635l-2.844-2.642
		c-0.699-0.649-0.699-1.702,0-2.352l1.333-1.238H51.758c-9.836,0-17.806,7.97-17.806,17.807v17.806c0,3.28,2.654,5.935,5.935,5.935
		H99.24c3.281,0,5.936-2.654,5.936-5.935V104.242L105.176,104.242z"/>
</g>
<path fill="#2B66B1" d="M112.219,107.844h-4.375v4.375h-2.188v-4.375h-4.375v-2.188h4.375v-4.375h2.188v4.375h4.375V107.844z
	 M106.75,95.813c-6.037,0-10.938,4.9-10.938,10.938s4.9,10.938,10.938,10.938s10.938-4.9,10.938-10.938
	S112.787,95.813,106.75,95.813z"/>
</svg>
